<svg width="30" height="30" viewBox="0 0 30 30" fill="none" xmlns="http://www.w3.org/2000/svg">
<g clip-path="url(#clip0_12_1972)">
<path d="M30 15C30 6.71573 23.2843 0 15 0C6.71573 0 0 6.71573 0 15C0 23.2843 6.71573 30 15 30C23.2843 30 30 23.2843 30 15Z" fill="#12B6A4"/>
<mask id="mask0_12_1972" style="mask-type:luminance" maskUnits="userSpaceOnUse" x="7" y="6" width="16" height="18">
<path d="M22.9166 6.6665H7.08325V23.3332H22.9166V6.6665Z" fill="white"/>
</mask>
<g mask="url(#mask0_12_1972)">
<path d="M20.4934 13.5091C20.4934 13.5091 20.4652 13.5091 20.4465 13.5091L18.249 13.1943C18.0799 13.1665 17.9578 13.0369 17.939 12.8703C17.7982 11.398 18.1926 8.82392 18.2584 8.41651C18.1175 7.27763 17.5728 6.67578 16.6995 6.67578C16.474 6.67578 16.3238 6.71281 16.3238 6.71281C16.1265 6.76837 15.92 7.00911 15.8824 7.20356C15.8824 7.23134 15.8824 7.24986 15.8636 7.26837L14.8118 10.2128C14.7555 10.5924 14.5958 11.1295 14.455 11.4628C14.455 11.4813 14.4362 11.4998 14.4268 11.5183L13.206 13.398C13.0181 13.8054 12.5485 14.185 12.1165 14.2869L10.8112 14.7221C10.8112 14.7221 10.783 14.7221 10.7736 14.7313C10.5952 14.7683 10.4355 14.9721 10.4355 15.148V22.2221L14.6146 23.2036C14.9245 23.2777 15.4598 23.3424 15.7885 23.3424H19.7327C21.3198 23.3424 21.6579 21.3703 21.6579 21.3424L22.8975 15.4073C22.8881 13.5832 20.5685 13.5183 20.4746 13.5183L20.4934 13.5091Z" fill="white"/>
<path d="M8.398 13.6851C7.67489 13.6851 7.08325 14.2684 7.08325 14.9814V22.037C7.08325 22.7499 7.67489 23.3332 8.398 23.3332C9.12108 23.3332 9.71275 22.7499 9.71275 22.037V14.9814C9.71275 14.2684 9.12108 13.6851 8.398 13.6851Z" fill="white"/>
</g>
</g>
<defs>
<clipPath id="clip0_12_1972">
<rect width="30" height="30" fill="white"/>
</clipPath>
</defs>
</svg>
