<svg width="30" height="30" viewBox="0 0 30 30" fill="none" xmlns="http://www.w3.org/2000/svg">
<g clip-path="url(#clip0_12_1982)">
<path d="M30 15C30 6.71573 23.2843 0 15 0C6.71573 0 0 6.71573 0 15C0 23.2843 6.71573 30 15 30C23.2843 30 30 23.2843 30 15Z" fill="#12B6A4"/>
<mask id="mask0_12_1982" style="mask-type:luminance" maskUnits="userSpaceOnUse" x="5" y="9" width="20" height="12">
<path d="M25 9.1665H5V20.8332H25V9.1665Z" fill="white"/>
</mask>
<g mask="url(#mask0_12_1982)">
<path d="M24.2162 12.4968C23.615 12.5286 23.0138 12.6135 22.3268 12.6983C21.8437 11.1711 21.6075 9.33617 19.6108 9.1665H10.4105C8.41375 9.33617 8.17755 11.1711 7.66225 12.6983C7.00739 12.6135 6.40622 12.5286 5.77283 12.4968C4.51679 12.7832 4.9462 13.9923 5.9768 14.215C5.54738 14.8938 5.54738 16.2513 5.89092 18.118L5.92312 20.3771C5.92312 20.6317 6.12709 20.8332 6.35253 20.8332H8.55325C8.81092 20.8332 9.01492 20.6317 9.01492 20.3771V19.7832H20.9956L21.0278 20.3771C21.0278 20.6317 21.2318 20.8332 21.4572 20.8332H23.6579C23.9156 20.8332 24.1196 20.6317 24.1196 20.3771V18.118C24.4953 16.2513 24.4631 14.8938 24.0337 14.215C25.0643 13.9923 25.5152 12.7726 24.2377 12.4968H24.2162ZM9.294 10.8635C9.55167 10.3544 10.0133 10.068 10.6145 10.068H19.396C20.0294 10.068 20.4588 10.3544 20.7165 10.8635L21.4358 12.9847H8.57475L9.294 10.8635ZM10.3461 17.3862C10.3139 17.5559 10.1743 17.6089 9.91667 17.5241C8.88608 17.1317 7.08254 17.068 7.4046 15.7211C8.91833 15.9226 10.2603 16.1771 10.3461 16.6013V17.3968V17.3862ZM20.0723 17.5241C19.8147 17.6089 19.6752 17.5559 19.6752 17.3862V16.5908C19.761 16.1665 21.0815 15.9119 22.5952 15.7104C22.9387 17.068 21.1137 17.1211 20.0831 17.5135L20.0723 17.5241Z" fill="white"/>
</g>
</g>
<defs>
<clipPath id="clip0_12_1982">
<rect width="30" height="30" fill="white"/>
</clipPath>
</defs>
</svg>
