<svg width="30" height="30" viewBox="0 0 30 30" fill="none" xmlns="http://www.w3.org/2000/svg">
<g clip-path="url(#clip0_12_1917)">
<path d="M30 15C30 6.71573 23.2843 0 15 0C6.71573 0 0 6.71573 0 15C0 23.2843 6.71573 30 15 30C23.2843 30 30 23.2843 30 15Z" fill="#12B6A4"/>
<mask id="mask0_12_1917" style="mask-type:luminance" maskUnits="userSpaceOnUse" x="6" y="10" width="19" height="12">
<path d="M24.5834 10H6.66675V21.5167H24.5834V10Z" fill="white"/>
</mask>
<g mask="url(#mask0_12_1917)">
<path d="M10.4001 20.4502V21.0752C10.4001 21.3252 10.6001 21.5252 10.8501 21.5252H16.7001C16.9501 21.5252 17.1501 21.3252 17.1501 21.0752V20.4502H10.4001Z" fill="white"/>
<path d="M24.3586 11.6083C24.292 11.5666 24.1086 11.4916 23.9086 11.6083L22.817 12.2333L21.6086 12.9333V16.7833L23.142 17.6666L23.9003 18.1083C23.9503 18.1333 24.0003 18.1583 24.042 18.1583C24.1086 18.1666 24.167 18.1583 24.217 18.1583H24.2253C24.2753 18.1416 24.317 18.125 24.342 18.1083C24.4086 18.0666 24.567 17.95 24.567 17.7166V12C24.567 11.7666 24.4086 11.65 24.342 11.6083H24.3586Z" fill="white"/>
<path d="M8.63341 19.725H18.9251C20.0084 19.725 20.8917 18.8417 20.8917 17.7583V11.9667C20.8917 10.8833 20.0084 10 18.9251 10H8.63341C7.55008 10 6.66675 10.8833 6.66675 11.9667V17.75C6.66675 18.8333 7.55008 19.7167 8.63341 19.7167V19.725ZM11.9001 13.7C11.9001 13.3833 12.0584 13.1083 12.3334 12.95C12.6084 12.7917 12.9251 12.7917 13.2001 12.95L15.2167 14.1167C15.4917 14.275 15.6501 14.55 15.6501 14.8667C15.6501 15.175 15.4917 15.4583 15.2167 15.6167L13.2001 16.7833C13.0667 16.8583 12.9167 16.9 12.7667 16.9C12.6167 16.9 12.4751 16.8583 12.3334 16.7833C12.0584 16.625 11.9001 16.35 11.9001 16.0333V13.7Z" fill="white"/>
</g>
</g>
<defs>
<clipPath id="clip0_12_1917">
<rect width="30" height="30" fill="white"/>
</clipPath>
</defs>
</svg>
