<svg width="30" height="30" viewBox="0 0 30 30" fill="none" xmlns="http://www.w3.org/2000/svg">
<g clip-path="url(#clip0_12_1928)">
<path d="M30 15C30 6.71573 23.2843 0 15 0C6.71573 0 0 6.71573 0 15C0 23.2843 6.71573 30 15 30C23.2843 30 30 23.2843 30 15Z" fill="#12B6A4"/>
<mask id="mask0_12_1928" style="mask-type:luminance" maskUnits="userSpaceOnUse" x="9" y="5" width="12" height="20">
<path d="M20.8334 5.8335H9.16675V24.1668H20.8334V5.8335Z" fill="white"/>
</mask>
<g mask="url(#mask0_12_1928)">
<path d="M14.0827 24.1669C16.7902 24.1669 18.9988 23.1223 18.9988 21.8687C19.0166 20.8676 17.6362 20.0145 15.7392 19.6924V20.5194C15.7392 21.4073 15.009 22.1211 14.1006 22.1211C13.1922 22.1211 12.4441 21.4073 12.4441 20.5194V19.6924C10.5293 19.997 9.16675 20.8676 9.16675 21.8687C9.16675 23.1397 11.3576 24.1669 14.0827 24.1669Z" fill="white"/>
<path d="M20.4415 9.49841L14.7507 7.20023V6.46898C14.7507 6.12077 14.4568 5.8335 14.1006 5.8335C13.7444 5.8335 13.4326 6.12077 13.4326 6.46898V20.5193C13.4326 20.8675 13.7265 21.1548 14.0828 21.1548C14.439 21.1548 14.7329 20.8675 14.7329 20.5193V12.9979L20.4149 10.6997C20.6553 10.604 20.8334 10.3689 20.8334 10.0991C20.8334 9.84666 20.6731 9.59416 20.4415 9.49841Z" fill="white"/>
</g>
</g>
<defs>
<clipPath id="clip0_12_1928">
<rect width="30" height="30" fill="white"/>
</clipPath>
</defs>
</svg>
