<svg width="30" height="30" viewBox="0 0 30 30" fill="none" xmlns="http://www.w3.org/2000/svg">
<g clip-path="url(#clip0_12_1906)">
<path d="M30 15C30 6.71573 23.2843 0 15 0C6.71573 0 0 6.71573 0 15C0 23.2843 6.71573 30 15 30C23.2843 30 30 23.2843 30 15Z" fill="#12B6A4"/>
<mask id="mask0_12_1906" style="mask-type:luminance" maskUnits="userSpaceOnUse" x="1" y="11" width="28" height="8">
<path d="M28.3334 11.25H1.66675V18.75H28.3334V11.25Z" fill="white"/>
</mask>
<g mask="url(#mask0_12_1906)">
<path d="M27.4822 17.4851L27.3898 16.8194C25.7693 14.7447 24.7949 14.2565 22.3847 13.8349C22.0257 13.5242 20.7642 13.136 20.1796 13.3467C19.9232 13.4133 19.6257 13.491 19.3693 13.3801C18.4257 12.8919 17.4206 13.136 16.477 13.3801C15.5334 13.025 13.9129 12.2262 13.4616 12.0154V11.5162C12.8462 11.0946 12.2924 11.1611 11.7693 11.7935C9.17442 11.7269 8.65133 13.0583 6.76418 13.7572C6.73342 13.724 6.63085 13.6131 6.60008 13.5465C7.27701 13.3357 7.21547 11.8268 6.40521 11.8268H5.20521C4.97956 11.8268 4.7847 11.9267 4.68213 12.1042C4.42572 11.7158 1.66675 11.616 1.66675 12.2484V15.1996L3.03085 15.5546C2.89751 14.4007 3.28726 14.079 4.13854 13.9015C4.24795 13.8053 4.33341 13.7018 4.39496 13.5908L4.65137 14.4007L3.19496 14.8557L3.4206 17.3519C4.23085 17.707 5.07187 18.0177 5.89239 18.295C5.53341 17.8734 5.33854 17.3076 5.33854 16.7528C5.33854 15.5213 6.25136 14.5006 7.37957 14.5006C8.50775 14.5006 9.46158 15.5213 9.46158 16.7528C9.46158 17.596 8.97958 18.4059 8.26162 18.7499L21.3488 18.5058C20.8667 18.0509 20.5693 17.4518 20.5693 16.7528C20.5693 15.5213 21.4822 14.5006 22.6103 14.5006C23.7386 14.5006 24.6924 15.5213 24.6924 16.7528C24.6924 17.4518 24.3642 18.0842 23.8822 18.5058H27.9437C28.8872 18.3282 27.9129 17.6626 27.4924 17.4851H27.4822Z" fill="white"/>
<path d="M8.25139 16.7416C8.25139 16.2312 7.86164 15.8096 7.38985 15.8096C6.91805 15.8096 6.54883 16.2312 6.54883 16.7416C6.54883 17.2519 6.93857 17.6513 7.38985 17.6513C7.84114 17.6735 8.25139 17.2297 8.25139 16.7416Z" fill="white"/>
<path d="M22.6209 17.7179C23.0926 17.7179 23.5132 17.263 23.5132 16.7527C23.5132 16.2423 23.1132 15.8096 22.6209 15.8096C22.1285 15.8096 21.749 16.2312 21.749 16.7527C21.749 17.2741 22.149 17.7179 22.6209 17.7179Z" fill="white"/>
</g>
</g>
<defs>
<clipPath id="clip0_12_1906">
<rect width="30" height="30" fill="white"/>
</clipPath>
</defs>
</svg>
