<svg width="31" height="31" viewBox="0 0 31 31" fill="none" xmlns="http://www.w3.org/2000/svg">
<g clip-path="url(#clip0_12_1214)">
<path d="M30.6289 15.6006C30.6289 7.31631 23.9132 0.600586 15.6289 0.600586C7.34463 0.600586 0.628906 7.31631 0.628906 15.6006C0.628906 23.8849 7.34463 30.6006 15.6289 30.6006C23.9132 30.6006 30.6289 23.8849 30.6289 15.6006Z" fill="#12B6A4"/>
<mask id="mask0_12_1214" style="mask-type:luminance" maskUnits="userSpaceOnUse" x="7" y="7" width="17" height="17">
<path d="M23.9623 7.26709H7.29565V23.9338H23.9623V7.26709Z" fill="white"/>
</mask>
<g mask="url(#mask0_12_1214)">
<path d="M23.5483 15.007C24.3557 14.165 23.9107 12.7294 22.7822 12.5459L19.4179 12.0169C18.9727 11.9521 18.5897 11.6499 18.3827 11.2397L16.861 8.06614C16.3537 6.99749 14.8941 6.99749 14.3868 8.06614L12.8651 11.2397C12.6684 11.6607 12.2751 11.9521 11.8299 12.0169L8.46551 12.5459C7.33715 12.7294 6.88166 14.165 7.69946 15.007L10.1218 17.4897C10.4427 17.8244 10.5877 18.2885 10.5152 18.7526L9.95616 22.25C9.76982 23.4267 10.95 24.3226 11.9645 23.7721L14.9769 22.1421C15.3807 21.9262 15.8568 21.9262 16.2502 22.1421L19.2626 23.7721C20.2771 24.3226 21.4572 23.4267 21.2709 22.25L20.7119 18.7526C20.6394 18.2885 20.7843 17.8135 21.1052 17.4897L23.5277 15.007H23.5483Z" fill="white"/>
</g>
</g>
<defs>
<clipPath id="clip0_12_1214">
<rect width="30" height="30" fill="white" transform="translate(0.628906 0.600586)"/>
</clipPath>
</defs>
</svg>
