<svg width="30" height="30" viewBox="0 0 30 30" fill="none" xmlns="http://www.w3.org/2000/svg">
<g clip-path="url(#clip0_12_1938)">
<path d="M30 15C30 6.71573 23.2843 0 15 0C6.71573 0 0 6.71573 0 15C0 23.2843 6.71573 30 15 30C23.2843 30 30 23.2843 30 15Z" fill="#12B6A4"/>
<mask id="mask0_12_1938" style="mask-type:luminance" maskUnits="userSpaceOnUse" x="3" y="3" width="24" height="24">
<path d="M26.25 3.3335H3.75V26.6668H26.25V3.3335Z" fill="white"/>
</mask>
<g mask="url(#mask0_12_1938)">
<path d="M10.6123 14.0348L12.2896 19.3696H17.71L19.3873 14.0348L14.9998 10.7256L10.6123 14.0348Z" fill="white"/>
<path d="M15 3.3335C8.79208 3.3335 3.75 8.56225 3.75 15.0002C3.75 21.4381 8.79208 26.6668 15 26.6668C21.2079 26.6668 26.25 21.4381 26.25 15.0002C26.25 8.56225 21.2079 3.3335 15 3.3335ZM22.0363 21.4592H19.2034L18.3647 24.132C17.3012 24.5562 16.1762 24.7789 15.0103 24.7789C13.8443 24.7789 12.7091 24.5562 11.6557 24.132L10.8171 21.4592H7.96363C6.47046 19.6881 5.65228 17.4502 5.65228 15.0744C5.65228 14.8305 5.65227 14.5865 5.67272 14.332L8.05568 13.0698L7.47272 9.29408C7.74887 8.91225 8.04546 8.55166 8.37275 8.21229C9.49775 7.04562 10.8579 6.21835 12.3409 5.76229L14.9897 7.75622L17.6284 5.77289C19.1216 6.22895 20.4716 7.05622 21.5966 8.22289C21.9443 8.5835 22.2613 8.96533 22.5375 9.36833L21.9648 13.0805L24.2966 14.3107C24.3171 14.5547 24.3272 14.8198 24.3272 15.0638C24.3272 17.4289 23.5091 19.6774 22.0159 21.4487L22.0363 21.4592Z" fill="white"/>
</g>
</g>
<defs>
<clipPath id="clip0_12_1938">
<rect width="30" height="30" fill="white"/>
</clipPath>
</defs>
</svg>
