<svg width="30" height="30" viewBox="0 0 30 30" fill="none" xmlns="http://www.w3.org/2000/svg">
<g clip-path="url(#clip0_12_1954)">
<path d="M30 15C30 6.71573 23.2843 0 15 0C6.71573 0 0 6.71573 0 15C0 23.2843 6.71573 30 15 30C23.2843 30 30 23.2843 30 15Z" fill="#12B6A4"/>
<mask id="mask0_12_1954" style="mask-type:luminance" maskUnits="userSpaceOnUse" x="7" y="6" width="16" height="18">
<path d="M22.6375 6.51221H7.36255V23.4872H22.6375V6.51221Z" fill="white"/>
</mask>
<g mask="url(#mask0_12_1954)">
<path d="M22.6376 9.90384V7.36221H20.9376V6.51221H20.0876V7.36221H13.3042V6.51221H12.4542V7.36221H9.90425V6.51221H9.05425V7.36221H7.36255V9.91217H8.21255V15.0038H7.36255V17.5538H8.21255V23.4955H15.8542V18.4038H20.0959V23.4955H21.7959V17.5538H22.6459V15.0038H21.7959V9.91217H22.6459L22.6376 9.90384ZM14.1542 21.7872H9.91258V18.3955H14.1542V21.7872ZM9.91258 14.1538V10.7622H14.1542V14.1538H9.91258ZM15.8542 14.1538V10.7622H20.0959V14.1538H15.8542Z" fill="white"/>
</g>
</g>
<defs>
<clipPath id="clip0_12_1954">
<rect width="30" height="30" fill="white"/>
</clipPath>
</defs>
</svg>
