<svg width="30" height="30" viewBox="0 0 30 30" fill="none" xmlns="http://www.w3.org/2000/svg">
<g clip-path="url(#clip0_12_1948)">
<path d="M30 15C30 6.71573 23.2843 0 15 0C6.71573 0 0 6.71573 0 15C0 23.2843 6.71573 30 15 30C23.2843 30 30 23.2843 30 15Z" fill="#12B6A4"/>
<path d="M15.0002 13.3075C16.8698 13.3075 18.3856 11.7917 18.3856 9.922C18.3856 8.05232 16.8698 6.53662 15.0002 6.53662C13.1304 6.53662 11.6147 8.05232 11.6147 9.922C11.6147 11.7917 13.1304 13.3075 15.0002 13.3075Z" fill="white"/>
<path d="M7.10083 23.4633C7.10083 19.1008 8.75 15.4165 15.0002 15.4165C21.6667 15.4165 22.8994 19.1008 22.8994 23.4633H7.10083Z" fill="white"/>
</g>
<defs>
<clipPath id="clip0_12_1948">
<rect width="30" height="30" fill="white"/>
</clipPath>
</defs>
</svg>
